<?xml version="1.0" standalone="no"?><!DOCTYPE svg PUBLIC "-//W3C//DTD SVG 1.1//EN" "http://www.w3.org/Graphics/SVG/1.1/DTD/svg11.dtd"><svg t="1768914006663" class="icon" viewBox="0 0 1024 1024" version="1.1" xmlns="http://www.w3.org/2000/svg" p-id="1962" xmlns:xlink="http://www.w3.org/1999/xlink" width="200" height="200"><path d="M950.854275 475.437176v-73.145725H1024v73.145725h-73.145725z m-548.562824-73.145725V0H0l402.291451 402.291451zM329.145725 73.145725v256L73.145725 73.145725h256zM146.291451 146.291451h109.708549v109.708549L146.291451 146.291451zM768 768h109.708549v109.708549L768 768zM1024 1024V621.708549H621.708549L1024 1024zM694.854275 694.854275h256v256l-256-256zM475.457255 329.145725v146.291451l73.125647 73.125648v-146.271373h73.145725v-73.145726H475.457255z m146.271372 0V256h73.145726v73.145725h-73.145726z m0 219.417099V475.457255h109.728628v73.125647h-109.728628z m182.854275 0V475.457255h146.291451v73.125647h-146.291451z m-73.125647-146.271373v-73.145726h219.417098v73.145726H731.457255zM884.856471 75.294118h73.145725v219.437176h-73.145725V75.294118zM621.708549 182.854275V0h73.145726v182.854275h-73.145726zM475.457255 73.145725V0h73.125647v73.145725H475.457255zM762.980392 140.54902h80.313726v80.313725h-80.313726V140.54902zM475.437176 109.708549h73.125648v146.291451H475.457255V109.708549z" fill="#18a058" p-id="1963"></path></svg>